
<svg opacity="0.1" xmlns="http://www.w3.org/2000/svg" width="827.23" height="817.073" viewBox="53.28 74.692 827.23 817.073"><defs><clipPath id="a"><path fill="currentColor" d="M839 614q-25 114-113.5 210T513 880q-124-40-259-71.5t-181.5-170Q26 500 92 376t164-224.5Q354 51 490 82t270 81.5Q894 214 879 357t-40 257Z"/></clipPath><pattern id="b" patternUnits="userSpaceOnUse" width="25" height="25" viewBox="0 0 100 100" fill="#ffffff"><circle cx="50" cy="50" r="12.5"/></pattern></defs><g clip-path="url(#a)"><path fill="url(#b)" d="M839 614q-25 114-113.5 210T513 880q-124-40-259-71.5t-181.5-170Q26 500 92 376t164-224.5Q354 51 490 82t270 81.5Q894 214 879 357t-40 257Z"/></g></svg>